<?xml version="1.0" standalone="no"?>
<!DOCTYPE svg PUBLIC "-//W3C//DTD SVG 20010904//EN"
 "http://www.w3.org/TR/2001/REC-SVG-20010904/DTD/svg10.dtd">
<svg version="1.0" xmlns="http://www.w3.org/2000/svg"
 width="223.000000pt" height="226.000000pt" viewBox="0 0 223.000000 226.000000"
 preserveAspectRatio="xMidYMid meet">
<metadata>
Created by potrace 1.10, written by Peter Selinger 2001-2011
</metadata>
<g transform="translate(0.000000,226.000000) scale(0.100000,-0.100000)"
fill="#D3D3D3" stroke="#D3D3D3">
<path d="M1088 2253 c-19 -3 -28 -10 -28 -23 0 -28 -22 -71 -34 -67 -6 2 -20
21 -31 43 -11 21 -21 41 -22 43 -1 2 -18 0 -38 -3 -30 -6 -35 -11 -35 -36 0
-39 -18 -83 -30 -75 -6 4 -20 26 -31 50 l-20 43 -37 -12 c-34 -12 -37 -16 -40
-57 -3 -42 -16 -69 -32 -69 -4 0 -24 13 -44 29 -36 29 -37 29 -75 13 -22 -9
-37 -20 -35 -23 8 -13 13 -80 8 -94 -9 -24 -30 -18 -69 19 l-36 34 -34 -30
-34 -29 19 -37 c36 -67 22 -83 -47 -52 l-46 20 -29 -27 c-28 -26 -28 -27 -9
-47 38 -43 54 -96 28 -96 -7 0 -29 8 -49 18 -33 17 -37 18 -50 3 -43 -53 -42
-48 -9 -86 47 -53 42 -65 -27 -65 -55 0 -58 -1 -69 -31 -11 -29 -10 -34 23
-72 19 -23 33 -46 31 -51 -2 -6 -29 -12 -59 -14 -56 -3 -56 -3 -62 -40 -4 -27
-2 -39 10 -45 9 -5 30 -22 48 -38 29 -28 30 -30 13 -43 -11 -8 -36 -18 -58
-21 -38 -7 -39 -8 -39 -50 0 -36 4 -44 22 -49 13 -3 34 -15 48 -25 30 -24 18
-42 -41 -60 -30 -9 -39 -16 -35 -27 3 -9 6 -29 6 -45 0 -16 5 -29 13 -29 32 0
87 -22 87 -35 0 -8 -21 -26 -46 -41 -30 -18 -43 -31 -40 -41 4 -8 9 -26 12
-39 5 -19 13 -24 38 -24 45 0 76 -10 76 -25 0 -8 -18 -29 -40 -48 -40 -34 -40
-35 -26 -67 14 -33 14 -34 74 -31 34 1 63 -2 66 -8 4 -6 -11 -30 -32 -53 l-40
-42 22 -33 c19 -31 24 -33 56 -27 41 7 39 7 68 5 28 -1 29 -34 2 -76 l-19 -30
25 -27 26 -27 43 21 c54 26 78 19 69 -19 -3 -16 -13 -38 -21 -51 -13 -21 -13
-25 4 -37 49 -37 58 -38 101 -11 67 42 68 41 45 -59 -3 -16 3 -24 28 -36 33
-16 33 -16 70 24 48 49 63 42 57 -28 l-4 -53 39 -13 c36 -12 40 -11 50 6 6 11
21 30 35 44 24 24 25 24 38 6 8 -10 14 -33 14 -49 0 -44 12 -57 56 -62 37 -5
40 -3 66 41 15 25 34 45 42 45 16 0 46 -48 46 -75 0 -11 11 -15 44 -15 43 0
44 0 55 44 20 79 56 85 91 16 23 -44 24 -45 69 -29 21 8 33 19 37 37 21 103
31 109 80 46 l31 -42 32 20 c25 16 31 27 31 53 0 72 22 82 86 39 l38 -26 27
33 c21 27 25 38 18 57 -12 31 -11 69 1 77 6 4 31 -5 57 -20 l47 -26 25 25 c23
23 24 28 13 59 -7 18 -12 45 -12 60 0 31 24 35 75 13 28 -12 31 -11 52 17 l22
30 -25 44 c-34 57 -27 76 23 67 21 -4 45 -10 53 -14 10 -6 21 2 38 26 l23 35
-40 44 c-23 25 -41 51 -41 59 0 17 42 26 86 19 32 -5 33 -4 36 33 3 35 -1 43
-42 81 -54 50 -47 67 24 62 36 -3 46 -1 46 11 1 8 3 32 6 52 5 34 3 38 -30 53
-60 29 -63 41 -11 60 43 17 45 19 45 59 0 40 -2 43 -46 64 -25 12 -44 28 -42
35 3 6 24 18 47 26 40 13 43 15 37 44 -3 16 -6 35 -6 42 0 8 -18 16 -40 20
-22 4 -50 14 -61 24 -24 19 -21 25 36 69 25 20 25 21 9 56 -16 33 -21 35 -68
38 -62 4 -70 23 -30 75 26 34 26 36 11 68 l-15 32 -66 -4 c-76 -6 -79 -2 -42
64 l24 41 -27 25 c-25 24 -28 25 -60 11 -44 -19 -81 -18 -81 1 0 9 6 31 14 50
14 34 14 35 -14 55 l-29 21 -40 -21 c-45 -23 -81 -26 -81 -7 1 6 7 29 14 50
13 37 13 38 -17 62 l-31 24 -42 -35 c-23 -19 -50 -34 -60 -34 -14 0 -16 7 -10
54 6 54 6 54 -26 65 -29 10 -33 9 -65 -24 -37 -38 -72 -46 -75 -17 0 9 -2 22
-3 27 -2 6 -3 20 -4 33 -1 19 -6 22 -38 22 -33 -1 -42 -6 -65 -40 -15 -22 -32
-40 -37 -40 -6 0 -18 23 -28 50 -11 32 -23 49 -33 49 -8 -1 -27 -4 -42 -6z
m56 -50 c6 -18 19 -40 28 -49 16 -16 18 -16 43 0 14 9 31 28 37 42 14 30 58
34 58 5 0 -35 22 -80 42 -87 15 -4 30 4 58 31 54 53 75 46 75 -25 0 -51 2 -55
26 -58 16 -2 38 8 63 28 44 34 49 35 66 15 9 -11 9 -22 -1 -50 -25 -67 18 -92
92 -55 35 19 44 20 55 8 11 -11 12 -21 3 -46 -17 -49 -5 -82 30 -82 15 0 43 5
60 11 27 9 36 9 48 -3 13 -13 12 -19 -6 -49 -12 -19 -21 -44 -21 -57 0 -37 60
-51 121 -27 24 9 41 -35 22 -60 -8 -11 -21 -32 -29 -47 -13 -25 -13 -29 6 -48
14 -14 33 -20 64 -20 36 0 45 -4 49 -21 4 -16 -4 -30 -29 -54 -19 -18 -34 -37
-34 -44 0 -20 38 -50 79 -61 35 -9 41 -15 41 -38 0 -23 -7 -30 -34 -40 -62
-23 -58 -60 10 -92 61 -30 61 -61 0 -84 -24 -9 -47 -24 -50 -33 -8 -20 16 -47
55 -64 24 -9 29 -17 25 -33 -3 -12 -6 -27 -6 -33 0 -8 -14 -13 -36 -13 -42 0
-74 -15 -74 -35 0 -8 18 -33 41 -56 52 -52 52 -86 -2 -81 -47 4 -85 -25 -74
-57 4 -12 20 -38 36 -56 26 -29 28 -37 19 -55 -9 -16 -16 -19 -33 -13 -39 13
-89 9 -100 -9 -9 -13 -5 -29 13 -67 18 -40 21 -53 11 -65 -9 -11 -19 -12 -45
-4 -42 13 -83 4 -91 -21 -3 -10 1 -38 9 -62 14 -39 14 -46 1 -59 -13 -12 -19
-13 -37 -1 -73 46 -112 28 -102 -48 5 -39 3 -49 -15 -65 -20 -18 -21 -18 -47
3 -34 27 -80 28 -94 2 -5 -11 -10 -36 -10 -55 0 -57 -27 -62 -70 -14 -28 32
-40 39 -57 34 -21 -7 -38 -44 -45 -95 -4 -35 -56 -49 -67 -18 -10 26 -56 77
-69 77 -16 0 -44 -38 -57 -77 -9 -28 -19 -39 -37 -41 -19 -2 -27 5 -43 40 -31
67 -71 61 -125 -19 -24 -36 -59 -21 -67 30 -6 37 -32 77 -51 77 -4 0 -25 -18
-47 -40 -31 -32 -42 -37 -57 -29 -14 7 -18 21 -18 59 0 74 -29 86 -85 34 -29
-26 -41 -32 -55 -24 -15 8 -17 16 -10 45 13 57 7 70 -28 69 -17 -1 -43 -11
-57 -23 -25 -19 -28 -19 -51 -4 -14 9 -23 21 -20 27 46 108 21 137 -81 95 -48
-19 -61 -3 -39 51 9 22 16 49 16 60 0 29 -42 43 -89 30 -48 -13 -49 -13 -62
11 -9 18 -6 26 19 53 60 64 48 94 -43 98 -52 3 -60 6 -63 24 -2 14 6 27 23 38
14 9 30 29 36 44 9 23 7 29 -11 44 -12 10 -33 18 -45 18 -13 0 -30 3 -39 6
-22 9 -20 51 2 58 11 4 30 18 43 32 29 31 19 53 -37 73 -21 8 -40 15 -41 15
-1 1 -4 13 -8 27 -6 23 -3 27 22 32 16 3 40 14 52 24 32 26 22 53 -29 82 -53
29 -56 66 -8 76 46 10 78 32 78 54 0 18 -55 74 -80 83 -8 2 -10 12 -6 26 6 19
15 22 55 22 79 0 89 25 37 93 -43 57 -35 76 32 74 26 0 53 3 60 7 19 12 14 47
-13 82 -29 38 -30 47 -11 63 11 10 22 9 46 -4 41 -21 80 -13 80 18 0 12 -11
41 -24 64 -21 36 -22 43 -9 55 12 13 19 12 54 -5 72 -36 111 5 74 77 -15 27
-14 31 3 48 18 18 19 18 57 -12 21 -16 46 -30 56 -30 27 0 42 36 34 85 -5 38
-3 44 14 50 13 4 34 -3 60 -20 22 -15 48 -25 58 -23 22 4 43 44 43 85 0 24 5
33 22 39 23 7 29 1 60 -55 9 -17 24 -31 33 -31 17 0 45 56 45 89 0 25 31 37
45 17 5 -8 18 -28 27 -45 23 -42 51 -40 72 3 9 19 16 42 16 51 0 12 7 15 27
13 20 -2 29 -11 37 -35z"/>
<path d="M1097 2173 c-12 -11 -7 -41 7 -46 8 -3 22 0 32 8 15 11 16 15 5 29
-14 17 -33 21 -44 9z"/>
<path d="M1255 2149 c-6 -19 7 -38 26 -39 14 0 29 28 23 44 -9 23 -41 20 -49
-5z m41 0 c10 -17 -13 -36 -27 -22 -12 12 -4 33 11 33 5 0 12 -5 16 -11z"/>
<path d="M934 2145 c-8 -20 4 -35 26 -35 23 0 32 13 24 34 -8 20 -43 21 -50 1z"/>
<path d="M773 2114 c-3 -8 2 -23 11 -32 15 -15 17 -15 32 0 21 21 11 48 -16
48 -11 0 -23 -7 -27 -16z"/>
<path d="M1417 2117 c-8 -21 8 -39 29 -35 27 5 25 42 -2 46 -12 2 -24 -3 -27
-11z"/>
<path d="M940 2075 c-287 -64 -512 -230 -648 -477 -90 -165 -121 -295 -118
-497 3 -164 28 -266 102 -414 116 -230 322 -406 562 -481 106 -33 134 -37 262
-41 254 -8 495 91 682 279 113 113 182 230 239 401 30 94 33 110 35 260 3 142
0 170 -21 252 -89 344 -329 597 -665 699 -108 33 -325 43 -430 19z m336 -19
c180 -32 352 -123 484 -255 103 -104 149 -171 202 -292 155 -360 77 -779 -197
-1054 -143 -143 -302 -224 -509 -260 -127 -22 -219 -18 -356 16 -249 62 -469
232 -593 459 -184 336 -146 755 96 1056 104 128 229 220 380 279 165 63 326
80 493 51z"/>
<path d="M1040 1989 c-181 -15 -379 -108 -511 -239 -319 -318 -346 -827 -60
-1167 220 -262 580 -371 888 -268 150 51 228 100 343 215 116 116 166 197 214
345 31 97 36 131 36 260 0 122 -4 154 -31 241 -104 337 -387 578 -716 610 -32
3 -62 6 -68 8 -5 1 -48 -1 -95 -5z m233 -35 c619 -136 870 -884 459 -1367
-274 -322 -750 -380 -1095 -133 -264 188 -395 529 -327 847 75 353 319 588
685 663 51 10 213 5 278 -10z"/>
<path d="M1015 1872 c6 -6 26 -12 45 -14 39 -3 47 -21 13 -26 -13 -2 -23 -7
-23 -12 0 -18 50 -42 75 -38 19 4 25 1 25 -13 0 -10 4 -20 9 -23 5 -3 12 21
16 54 7 58 15 69 42 52 8 -5 9 -21 3 -52 -6 -31 -5 -49 3 -59 9 -11 14 -2 22
45 9 51 13 59 30 56 18 -3 19 -2 4 13 -13 13 -43 18 -145 22 -89 3 -126 2
-119 -5z m133 -39 c-2 -23 -9 -29 -33 -31 -28 -2 -29 -2 -11 12 11 9 16 22 13
31 -5 10 0 15 14 15 16 0 20 -5 17 -27z"/>
<path d="M1383 1859 c-5 -16 -11 -19 -32 -15 l-26 6 24 -20 24 -21 -22 -46
c-14 -29 -19 -49 -13 -55 6 -6 19 11 35 46 l26 57 61 -31 c51 -26 60 -33 49
-46 -10 -12 -15 -11 -37 11 -28 29 -44 31 -62 10 -17 -21 -6 -44 30 -58 23
-10 27 -16 18 -25 -8 -8 -9 -15 -2 -22 7 -7 21 5 44 35 37 50 42 52 60 30 15
-18 -3 -47 -24 -39 -8 3 -16 -1 -19 -9 -7 -18 8 -41 21 -34 5 4 17 -2 26 -12
14 -16 15 -20 2 -30 -8 -7 -20 -10 -26 -6 -14 9 -13 -8 2 -23 16 -16 1 -29
-20 -16 -9 6 -18 25 -20 43 -2 17 -8 31 -14 31 -17 0 1 -73 23 -92 25 -21 59
-8 59 21 0 16 35 50 77 74 16 10 89 -101 74 -116 -7 -7 -13 -3 -20 14 -5 13
-19 38 -30 54 -17 24 -21 26 -21 11 0 -11 -6 -27 -14 -35 -20 -22 -31 -71 -17
-71 6 0 11 9 11 20 0 10 9 24 20 30 16 8 21 6 31 -12 10 -18 8 -24 -7 -35 -10
-7 -24 -13 -31 -13 -7 0 -13 -7 -13 -16 0 -12 5 -14 18 -9 35 15 57 11 60 -13
3 -20 1 -21 -23 -12 -23 9 -26 8 -23 -7 4 -22 34 -29 54 -12 11 9 14 23 11 46
-4 24 -2 33 8 33 14 0 45 -84 45 -122 0 -27 -19 -22 -30 8 -12 30 -23 26 -40
-16 -10 -23 -10 -37 -2 -55 10 -22 9 -25 -7 -25 -10 0 -21 -7 -25 -15 -5 -13
4 -15 61 -9 39 4 64 3 61 -2 -3 -5 -2 -18 2 -29 6 -17 8 -15 15 15 4 19 18 51
31 70 24 35 32 84 15 94 -10 7 -24 -22 -16 -34 6 -10 -14 -70 -24 -70 -4 0
-12 33 -19 73 -24 139 -128 303 -239 377 -27 17 -47 33 -45 36 8 15 -2 37 -32
68 -40 43 -94 51 -103 15z m70 -10 c19 -9 67 -69 54 -69 -12 0 -107 52 -107
58 0 23 19 27 53 11z m2 -111 c27 -12 33 -28 11 -28 -25 0 -46 12 -46 26 0 17
2 17 35 2z m161 -103 c-17 -13 -22 -13 -38 2 -17 15 -17 17 -1 35 16 18 17 18
37 -2 21 -21 21 -21 2 -35z m157 -317 c12 10 16 8 20 -10 7 -26 8 -25 -24 -33
-21 -5 -27 -2 -37 20 -7 14 -12 34 -12 43 0 13 4 12 19 -8 16 -20 22 -22 34
-12z"/>
<path d="M825 1826 c-62 -24 -118 -54 -170 -91 -16 -12 -40 -22 -53 -23 -41
-2 -92 -23 -107 -45 -22 -31 -19 -68 5 -74 20 -5 20 -7 4 -24 -15 -17 -15 -19
-1 -19 9 0 20 7 25 17 9 14 15 13 56 -15 26 -18 53 -29 61 -25 12 4 0 16 -40
41 l-56 35 47 48 c39 39 50 46 62 37 12 -10 10 -14 -10 -20 -26 -9 -53 -52
-43 -69 11 -17 46 -9 72 18 16 15 29 21 31 15 2 -7 13 -12 24 -12 18 0 14 7
-21 46 -36 38 -40 48 -30 60 16 20 69 47 69 36 0 -5 -11 -14 -25 -20 -25 -12
-26 -42 0 -42 7 0 18 -7 25 -15 16 -20 40 -19 70 2 14 10 33 16 43 15 16 -3
15 2 -8 48 -18 36 -23 56 -16 63 17 17 38 0 53 -45 8 -24 22 -44 31 -46 16 -3
15 2 -3 48 -20 50 -20 53 -3 66 17 12 16 13 -7 13 -14 0 -52 -10 -85 -23z m-5
-66 c11 -26 10 -33 -5 -50 -17 -19 -45 -27 -45 -14 0 4 8 13 18 20 16 12 16
13 0 14 -9 0 -20 -4 -23 -10 -8 -13 -35 -13 -35 0 0 6 11 16 25 22 17 7 24 17
20 26 -6 15 13 34 26 27 3 -3 12 -18 19 -35z m-247 -105 c-21 -24 -43 -44 -50
-45 -36 -1 -14 56 29 75 56 24 61 17 21 -30z m107 -3 c0 -5 -11 -19 -24 -31
-30 -28 -45 -10 -16 19 21 21 40 26 40 12z"/>
<path d="M971 1595 c-235 -66 -389 -305 -351 -547 43 -287 320 -474 595 -403
296 78 450 419 313 695 -47 94 -137 182 -235 228 -71 33 -87 37 -173 39 -61 2
-114 -3 -149 -12z m251 -23 c69 -20 148 -64 187 -106 l23 -24 -48 -8 c-55 -8
-180 -44 -236 -68 -21 -9 -40 -16 -43 -16 -3 0 -5 54 -5 120 l0 120 28 0 c15
0 57 -8 94 -18z m-162 -7 c0 -13 -14 -35 -22 -35 -6 0 -31 -17 -57 -38 -46
-38 -68 -43 -118 -27 -32 10 -29 20 13 46 50 30 184 70 184 54z m20 -215 c6 0
10 -102 10 -265 0 -146 -2 -265 -5 -265 -2 0 -26 13 -52 28 -94 56 -224 84
-296 64 -20 -6 -37 -7 -37 -4 -1 25 43 528 46 531 2 3 34 -1 72 -8 37 -7 79
-15 94 -18 22 -3 41 6 90 47 l63 50 3 -80 c2 -44 7 -80 12 -80z m456 -85 c70
-225 -30 -462 -240 -566 -54 -26 -101 -42 -139 -46 l-57 -6 0 86 0 85 56 31
c102 55 142 66 242 66 l92 0 -5 45 c-10 81 -35 400 -35 433 1 32 1 32 36 -23
19 -30 42 -77 50 -105z m-124 90 l-4 -35 -115 0 c-126 0 -137 9 -45 36 31 10
60 20 64 23 4 3 29 7 56 9 l48 3 -4 -36z m-2 -240 l0 -165 -130 0 -130 0 0
165 0 165 130 0 130 0 0 -165z m-727 93 c-6 -103 -8 -119 -18 -116 -20 6 -1
178 19 178 1 0 0 -28 -1 -62z m237 -352 c25 -9 49 -18 55 -19 5 -1 14 -5 20
-10 65 -48 65 -47 65 -98 l0 -49 -35 0 c-57 0 -187 61 -241 115 -24 24 -45 65
-38 76 9 15 115 6 174 -15z"/>
<path d="M1013 1437 c-18 -7 -46 -28 -62 -48 -36 -43 -107 -183 -114 -224 -3
-16 -9 -39 -13 -49 -5 -14 -4 -17 4 -12 7 4 12 16 12 27 0 10 3 18 8 17 14 -5
49 27 66 59 9 18 37 55 61 83 25 28 46 56 47 63 2 21 5 32 12 52 11 27 16 45
13 44 -1 0 -17 -6 -34 -12z"/>
<path d="M764 1026 c-24 -49 -31 -73 -24 -80 15 -15 146 -14 160 0 9 9 4 26
-20 67 -17 30 -29 60 -28 67 2 7 -9 13 -25 14 -26 2 -32 -5 -63 -68z m47 -28
c-14 -42 -22 -52 -37 -50 -25 5 -26 6 -18 26 3 9 11 13 17 9 6 -3 7 -1 3 5 -4
6 -4 23 0 37 4 18 13 25 29 25 l24 0 -18 -52z"/>
<path d="M1191 1173 c0 -47 3 -62 9 -48 5 11 9 14 9 8 1 -9 23 -13 76 -13 l75
0 0 60 0 60 -85 0 -85 0 1 -67z m139 -3 l0 -40 -50 0 -50 0 0 40 0 40 50 0 50
0 0 -40z"/>
<path d="M1187 1088 c-22 -16 -25 -23 -15 -29 18 -12 68 -11 68 1 0 6 20 10
45 10 33 0 45 -4 45 -15 0 -12 -16 -15 -85 -15 -69 0 -85 -3 -85 -15 0 -12 20
-15 119 -15 l119 0 -3 32 c-2 24 -10 38 -31 50 -36 22 -54 23 -54 3 0 -11 -12
-15 -52 -15 -53 0 -57 14 -8 23 22 4 22 4 -5 5 -16 1 -43 -8 -58 -20z"/>
<path d="M478 1498 c-9 -7 -26 -42 -38 -77 -25 -75 -41 -249 -22 -237 7 4 12
24 12 46 0 33 3 37 20 33 11 -3 20 -14 20 -24 0 -11 6 -19 14 -19 18 0 81 78
71 88 -4 4 -15 -3 -26 -16 -24 -31 -36 -22 -31 22 4 32 7 36 33 33 49 -4 32
18 -26 32 -50 12 -55 16 -49 35 10 31 10 31 65 12 74 -27 87 -6 15 24 -49 19
-54 24 -45 41 11 22 9 24 -13 7z m2 -174 c0 -31 -3 -35 -22 -32 -13 2 -22 6
-20 11 1 4 2 18 2 32 0 18 5 25 20 25 16 0 20 -7 20 -36z"/>
<path d="M380 1147 c0 -8 11 -24 25 -37 30 -28 32 -40 6 -40 -26 0 -37 -18
-17 -26 21 -8 46 13 46 37 0 11 -9 28 -20 39 -11 11 -20 25 -20 30 0 6 -4 10
-10 10 -5 0 -10 -6 -10 -13z"/>
<path d="M466 1152 c-9 -15 1 -32 18 -32 7 0 21 -9 31 -20 14 -16 16 -23 7
-32 -9 -9 -12 -8 -12 4 0 23 -18 32 -35 18 -17 -14 -20 -50 -5 -50 5 0 9 9 7
19 -3 26 17 27 21 1 4 -24 15 -26 32 -5 18 21 4 64 -24 75 -13 5 -26 14 -28
21 -3 10 -6 10 -12 1z"/>
<path d="M1667 1083 c3 -27 9 -52 14 -57 11 -13 39 12 39 35 0 11 5 19 10 19
6 0 10 4 10 10 0 5 -13 8 -30 6 -24 -3 -30 0 -30 15 0 11 -4 19 -9 19 -5 0 -6
-21 -4 -47z m37 -26 c-3 -9 -10 -17 -15 -17 -11 0 -12 34 -2 44 11 11 24 -9
17 -27z"/>
<path d="M1764 1115 c-9 -23 3 -45 26 -45 15 0 20 -7 20 -25 0 -14 4 -25 9
-25 11 0 2 81 -12 98 -13 17 -36 15 -43 -3z m40 -11 c9 -23 8 -24 -14 -24 -11
0 -20 2 -20 4 0 12 13 36 20 36 4 0 11 -7 14 -16z"/>
<path d="M543 969 c-6 -8 -13 -29 -15 -48 -3 -33 -28 -58 -28 -28 0 20 -25 28
-39 14 -16 -16 -14 -47 4 -53 21 -8 19 -18 -11 -53 l-26 -31 23 9 c13 5 50 20
81 34 53 24 58 24 68 9 18 -32 11 31 -8 74 -10 21 -23 50 -28 63 -8 19 -12 21
-21 10z m32 -89 c5 -23 1 -27 -41 -43 -26 -9 -49 -15 -51 -13 -3 2 9 17 26 32
17 15 33 36 37 46 7 23 20 13 29 -22z"/>
<path d="M1643 928 c-6 -7 -30 -51 -53 -96 -37 -72 -55 -94 -122 -150 -44 -37
-75 -68 -68 -70 11 -4 54 26 97 67 26 25 36 26 53 6 11 -13 8 -15 -14 -15 -16
0 -26 -6 -26 -14 0 -8 -10 -16 -22 -18 -17 -2 -24 -11 -26 -31 -4 -35 13 -57
44 -57 32 0 58 28 43 46 -20 24 -42 17 -35 -11 7 -28 -5 -33 -23 -11 -19 23 4
59 34 54 18 -4 21 -1 17 14 -8 31 25 21 55 -17 15 -19 34 -35 41 -35 8 0 -10
27 -39 61 l-53 61 25 44 c19 35 26 42 34 31 27 -37 85 -27 85 14 0 21 15 25
26 8 10 -17 -17 -59 -43 -65 -12 -3 -36 -1 -53 4 -16 6 -30 7 -30 3 0 -13 75
-29 105 -23 56 10 70 85 19 98 -33 8 -54 -1 -54 -26 0 -23 -10 -26 -28 -8 -18
18 -15 26 18 43 17 9 30 23 30 32 0 14 4 13 23 -5 32 -30 85 -48 100 -33 8 8
4 11 -17 11 -17 0 -39 11 -58 30 -16 17 -36 30 -44 30 -8 0 -20 -13 -25 -30
-6 -16 -17 -30 -25 -30 -18 0 -18 3 7 51 20 40 21 62 2 37z"/>
<path d="M620 807 c0 -26 -22 -49 -87 -90 -24 -15 -43 -32 -43 -38 0 -7 8 -6
23 3 110 73 126 80 143 64 8 -9 12 -16 7 -16 -4 0 14 -19 40 -43 l48 -42 -31
-30 c-20 -19 -29 -23 -25 -12 9 23 -20 67 -45 67 -29 0 -46 -38 -26 -58 14
-14 17 -14 34 2 32 28 35 -5 7 -58 -14 -26 -22 -46 -18 -46 3 0 30 27 60 60
l54 59 46 -29 c26 -17 53 -30 60 -30 7 0 13 -4 13 -10 0 -5 -25 -10 -56 -10
-52 0 -55 -1 -49 -21 4 -12 14 -30 24 -40 9 -11 18 -36 21 -57 l5 -37 27 58
c28 60 45 68 59 29 8 -20 6 -22 -17 -16 -21 6 -25 3 -22 -11 4 -25 22 -29 42
-10 21 22 20 51 -3 74 -26 26 -15 34 21 15 16 -8 33 -12 39 -8 6 3 31 3 57 -1
44 -7 45 -8 22 -17 -86 -34 -92 -38 -79 -54 7 -8 25 -22 39 -29 15 -8 34 -28
42 -45 l15 -32 7 69 c10 92 14 103 34 96 14 -6 15 -4 4 9 -8 10 -39 18 -90 23
-58 5 -93 16 -144 41 -37 19 -74 34 -83 34 -8 0 -14 3 -13 8 1 4 -27 35 -62
69 -59 56 -64 64 -52 83 15 24 9 25 -22 5 -22 -15 -22 -14 -18 15 2 16 2 30
-2 30 -3 0 -6 -10 -6 -23z m240 -292 c0 -2 -5 -16 -12 -30 l-12 -26 -13 23
c-18 33 -16 38 12 38 14 0 25 -2 25 -5z m196 -91 c-4 -11 -10 -9 -28 9 l-23
22 25 12 c22 10 25 9 28 -9 2 -11 1 -26 -2 -34z"/>
<path d="M1330 585 c-25 -13 -80 -29 -122 -36 -43 -7 -78 -16 -78 -21 0 -10
25 -10 73 1 48 11 47 0 -3 -33 -22 -14 -40 -30 -40 -34 0 -16 24 -32 48 -32
14 0 37 -13 55 -32 l30 -33 -8 30 c-27 102 -24 116 19 99 20 -8 21 -24 1 -24
-19 0 -20 -26 0 -34 24 -9 35 24 19 56 -10 19 -22 28 -39 28 -34 0 -32 18 3
25 15 4 35 11 46 17 17 9 18 7 12 -16 -14 -56 44 -133 88 -117 26 10 28 44 2
49 -15 3 -18 0 -13 -18 8 -32 -25 -22 -41 13 -16 33 -9 89 13 111 13 12 12 15
-1 20 -9 3 -16 6 -17 5 -1 -1 -22 -11 -47 -24z m-78 -125 c5 -34 5 -34 -25
-19 -32 17 -32 18 -11 34 27 20 31 19 36 -15z"/>
<path d="M976 391 c-7 -11 18 -33 27 -24 4 3 7 12 7 20 0 15 -26 18 -34 4z"/>
<path d="M633 2063 c-18 -6 -16 -42 2 -49 16 -6 45 12 45 27 0 12 -33 27 -47
22z"/>
<path d="M1564 2046 c-9 -24 4 -48 23 -44 24 4 24 52 0 56 -9 2 -20 -4 -23
-12z"/>
<path d="M474 1955 c-8 -21 2 -45 19 -45 8 0 20 7 27 15 10 12 10 18 0 30 -7
8 -19 15 -27 15 -7 0 -16 -7 -19 -15z"/>
<path d="M1704 1956 c-9 -24 4 -48 23 -44 24 4 24 52 0 56 -9 2 -20 -4 -23
-12z"/>
<path d="M357 1863 c-13 -12 -7 -44 8 -49 24 -10 47 14 34 37 -10 19 -30 25
-42 12z"/>
<path d="M1836 1843 c-10 -26 23 -48 42 -29 8 8 12 22 9 30 -8 21 -43 20 -51
-1z"/>
<path d="M257 1723 c-13 -12 -7 -41 10 -47 20 -8 44 19 36 40 -5 14 -35 19
-46 7z"/>
<path d="M1962 1718 c-17 -17 -15 -45 3 -52 8 -3 22 2 30 11 15 14 14 17 -1
34 -20 22 -17 22 -32 7z"/>
<path d="M177 1573 c-12 -11 -7 -41 7 -46 21 -8 48 16 40 36 -6 17 -35 23 -47
10z"/>
<path d="M2026 1544 c-9 -22 17 -49 39 -40 10 3 15 15 13 28 -4 29 -42 37 -52
12z"/>
<path d="M124 1416 c-9 -24 4 -48 23 -44 12 2 18 12 18 28 0 29 -32 41 -41 16z"/>
<path d="M2074 1366 c-9 -22 4 -36 32 -36 21 0 25 4 22 23 -4 26 -45 37 -54
13z"/>
<path d="M96 1241 c-11 -18 6 -42 28 -39 29 4 29 42 -1 46 -11 2 -24 -1 -27
-7z"/>
<path d="M2103 1223 c-17 -6 -16 -38 1 -52 11 -9 17 -8 30 4 24 24 2 59 -31
48z"/>
<path d="M97 1073 c-13 -12 -7 -41 10 -47 21 -9 46 16 37 37 -6 17 -35 23 -47
10z"/>
<path d="M2101 1040 c-19 -11 -9 -45 14 -45 13 0 21 8 23 21 3 23 -17 37 -37
24z"/>
<path d="M120 895 c-10 -12 -10 -18 0 -30 14 -17 20 -18 39 -6 16 10 6 51 -13
51 -8 0 -19 -7 -26 -15z"/>
<path d="M2050 865 c-10 -12 -10 -18 0 -30 16 -19 39 -19 46 0 6 15 -11 45
-26 45 -4 0 -13 -7 -20 -15z"/>
<path d="M170 735 c-17 -20 -5 -45 20 -45 11 0 23 7 26 15 6 15 -11 45 -26 45
-4 0 -13 -7 -20 -15z"/>
<path d="M1987 713 c-13 -12 -7 -41 10 -47 21 -9 46 16 37 37 -6 17 -35 23
-47 10z"/>
<path d="M256 574 c-4 -10 -1 -24 7 -31 19 -19 49 -5 45 21 -4 27 -43 34 -52
10z"/>
<path d="M1894 546 c-9 -24 4 -48 23 -44 24 4 24 52 0 56 -9 2 -20 -4 -23 -12z"/>
<path d="M349 434 c-11 -14 -10 -18 6 -30 16 -12 21 -12 33 0 17 17 9 46 -11
46 -8 0 -21 -7 -28 -16z"/>
<path d="M1780 404 c-11 -12 -10 -18 3 -32 16 -15 18 -15 33 0 19 18 12 48 -9
48 -8 0 -20 -7 -27 -16z"/>
<path d="M487 333 c-13 -12 -7 -41 10 -47 9 -4 23 0 31 8 13 12 13 18 2 30
-13 17 -32 21 -43 9z"/>
<path d="M1644 295 c-8 -21 2 -45 19 -45 8 0 20 7 27 15 10 12 10 18 0 30 -7
8 -19 15 -27 15 -7 0 -16 -7 -19 -15z"/>
<path d="M620 235 c0 -22 4 -26 23 -23 14 2 22 10 22 23 0 13 -8 21 -22 23
-19 3 -23 -1 -23 -23z"/>
<path d="M1490 204 c-11 -12 -10 -18 3 -31 8 -9 23 -13 31 -10 21 8 21 43 0
51 -21 8 -20 8 -34 -10z"/>
<path d="M776 184 c-4 -10 -1 -24 7 -31 19 -19 49 -5 45 21 -4 27 -43 34 -52
10z"/>
<path d="M1327 155 c-20 -19 -12 -45 14 -45 26 0 36 28 17 46 -13 14 -17 14
-31 -1z"/>
<path d="M944 145 c-14 -36 21 -60 45 -31 9 11 8 18 -4 30 -20 20 -34 20 -41
1z"/>
<path d="M1130 134 c-11 -12 -10 -18 3 -31 8 -9 23 -13 31 -10 21 8 21 43 0
51 -21 8 -20 8 -34 -10z"/>
</g>
</svg>
